<mxfile host="app.diagrams.net" modified="2023-12-10T20:30:38.031Z" agent="Mozilla/5.0 (Windows NT 10.0; Win64; x64) AppleWebKit/537.36 (KHTML, like Gecko) Chrome/120.0.0.0 Safari/537.36" version="22.1.7" etag="T-MMpqYL7qDaF6hU3ovN" type="device">
  <diagram id="2Z_mEDNGGHBUewXJjDE-" name="Page-1">
    <mxGraphModel dx="1461" dy="660" grid="1" gridSize="10" guides="1" tooltips="1" connect="1" arrows="1" fold="1" page="1" pageScale="1" pageWidth="5000" pageHeight="3000" math="0" shadow="0">
      <root>
        <mxCell id="0" />
        <mxCell id="1" parent="0" />
      </root>
    </mxGraphModel>
  </diagram>
</mxfile>
